Coordinates
version=1
nRows=29
nColumns=24
inDegrees=yes

Units are S.I. units (second, meters, Newtons, ...)
Angles are in degrees.

endheader
time	pelvis_tilt	pelvis_list	pelvis_rotation	pelvis_tx	pelvis_ty	pelvis_tz	hip_flexion_r	hip_adduction_r	hip_rotation_r	knee_angle_r	ankle_angle_r	subtalar_angle_r	mtp_angle_r	hip_flexion_l	hip_adduction_l	hip_rotation_l	knee_angle_l	ankle_angle_l	subtalar_angle_l	mtp_angle_l	lumbar_extension	lumbar_bending	lumbar_rotation
      1.06300000	     -3.76669961	     -1.78638214	     -6.21603151	     -0.15542915	      0.88544548	      0.38252812	    -14.03997060	      6.12354919	      1.74475660	     -6.63941251	     18.35892431	     13.63749472	      9.64106189	     29.69150964	     -3.57747151	    -15.17774767	     -6.23463982	      1.25380716	      1.16667104	     -0.10845024	     -2.85870050	      2.66902936	     12.90269224
      1.06716667	     -3.84920503	     -1.72226372	     -6.32262071	     -0.14980662	      0.88435571	      0.38251029	    -14.05611892	      5.97147566	      1.65047441	     -7.21100868	     18.52602144	     13.98986124	      9.97597388	     29.83543193	     -3.50750335	    -14.93585673	     -6.59915368	      1.09515790	      0.92161652	     -0.04142079	     -2.76194428	      2.53047492	     13.00010245
      1.07133333	     -3.93228354	     -1.63966486	     -6.42737007	     -0.14413635	      0.88332901	      0.38252562	    -14.08269330	      5.80605595	      1.65143268	     -7.75480915	     18.60458629	     14.11884858	     12.55878073	     29.97044665	     -3.42300573	    -14.68908078	     -7.01604207	      0.87151121	      0.63774051	      0.71820502	     -2.65600097	      2.34468924	     12.99507608
      1.07550000	     -4.02560635	     -1.58180262	     -6.53780144	     -0.13850785	      0.88233526	      0.38255606	    -14.06935827	      5.67003060	      1.69486045	     -8.36364847	     18.70923833	     14.28553720	     12.60523084	     30.14855506	     -3.37965564	    -14.46662086	     -7.57334738	      0.71693798	      0.38604116	      0.74300767	     -2.55818508	      2.21101049	     13.06081895
      1.07966667	     -4.10837999	     -1.48748785	     -6.62753706	     -0.13280240	      0.88142548	      0.38253541	    -14.04649204	      5.49248348	      1.65638741	     -9.00805491	     18.77679596	     14.51017281	     12.69441822	     30.29448099	     -3.27896167	    -14.20881800	     -8.13624299	      0.45171428	     -0.00406378	      0.79043505	     -2.44533632	      2.02033285	     13.09583911
      1.08383333	     -4.15466932	     -1.38313927	     -6.68036176	     -0.12703163	      0.88062416	      0.38245044	    -14.06748899	      5.30294360	      1.56289935	     -9.64011747	     18.79086843	     14.78639464	     12.88785630	     30.39873720	     -3.14086367	    -13.89981308	     -8.73654980	      0.12371432	     -0.52914575	      0.89514726	     -2.36650588	      1.81810824	     13.10824250
      1.08800000	     -4.22648121	     -1.27161495	     -6.75850540	     -0.12127117	      0.87986050	      0.38242304	    -14.02387252	      5.11104612	      1.55976936	    -10.34464677	     18.74918876	     14.90284233	     13.05773612	     30.53562599	     -3.01904609	    -13.65158506	     -9.40091219	     -0.16279338	     -0.97480126	      0.98281222	     -2.26666827	      1.59371880	     13.08852344
      1.09216667	     -4.20529292	     -1.11605719	     -6.79148044	     -0.11537739	      0.87930758	      0.38228301	    -14.08962103	      4.85592886	      1.42498102	    -11.01949173	     18.63369608	     15.17257793	     13.80574649	     30.53700730	     -2.79915878	    -13.32691802	    -10.01860212	     -0.53370269	     -1.68376883	      1.36251304	     -2.25608857	      1.30020327	     13.05242994
      1.09633333	     -4.25700185	     -1.01536138	     -6.80869530	     -0.10957277	      0.87869909	      0.38213888	    -14.03030558	      4.68154824	      1.33964664	    -11.79273382	     18.48366060	     15.31160306	     14.44561133	     30.66046110	     -2.64617640	    -12.97507144	    -10.75005002	     -0.90369895	     -2.29330633	      1.66834008	     -2.18485856	      1.11497268	     13.00419970
      1.10050000	     -4.32775125	     -0.89457283	     -6.84414315	     -0.10368034	      0.87814422	      0.38205929	    -13.95405245	      4.49252085	      1.36043713	    -12.55460684	     18.23976576	     15.32155042	     14.66087626	     30.82579240	     -2.50939178	    -12.80512892	    -11.58083106	     -1.17318789	     -2.69378956	      1.76005682	     -2.05195793	      0.86838807	     12.95037869
      1.10466667	     -4.31008733	     -0.75578359	     -6.83161785	     -0.09772359	      0.87778814	      0.38185575	    -13.94994272	      4.26749149	      1.21809143	    -13.34365397	     17.87978928	     15.44685216	     18.90795383	     30.86650193	     -2.29788509	    -12.52094397	    -12.35272628	     -1.53765258	     -3.35867871	      3.48645932	     -2.03778134	      0.61177412	     12.87825082
      1.10883333	     -4.34864697	     -0.62787018	     -6.82060962	     -0.09176015	      0.87742607	      0.38168542	    -13.85955434	      4.07311731	      1.17389345	    -14.19230871	     17.51593701	     15.46055187	     18.96348789	     30.98047713	     -2.11301117	    -12.25712745	    -13.18204755	     -1.79621456	     -3.90641052	      3.50566546	     -1.93747977	      0.35423521	     12.78075393
      1.11300000	     -4.35855120	     -0.49029454	     -6.78548159	     -0.08575595	      0.87717924	      0.38144611	    -13.76830967	      3.86244026	      1.06873115	    -15.09739046	     17.11674369	     15.54723764	     19.09429671	     31.05273764	     -1.89395801	    -11.95710993	    -14.00027031	     -2.05064001	     -4.54396140	      3.53553389	     -1.87640205	      0.09111322	     12.66295668
      1.11716667	     -4.35453221	     -0.34707742	     -6.74461494	     -0.07971294	      0.87703126	      0.38119650	    -13.66506855	      3.64408386	      0.96130175	    -16.04547302	     16.64253755	     15.60785890	     19.26944184	     31.10612865	     -1.66830919	    -11.68220023	    -14.83286699	     -2.24630389	     -5.11854971	      3.56747386	     -1.82538286	     -0.18239424	     12.54269444
      1.12133333	     -4.29874642	     -0.20626522	     -6.67894723	     -0.07365767	      0.87702449	      0.38086531	    -13.58098948	      3.41525704	      0.77900684	    -17.04994179	     16.09738974	     15.71674139	     22.98181598	     31.09705917	     -1.41986460	    -11.38333173	    -15.65477544	     -2.46125767	     -5.77591767	      4.15390292	     -1.86141049	     -0.43626033	     12.42502754
      1.12550000	     -4.30757226	     -0.06827360	     -6.60748166	     -0.06758077	      0.87700179	      0.38055655	    -13.39081555	      3.21033570	      0.66002595	    -18.12809680	     15.51264797	     15.68977575	     23.07361576	     31.15783836	     -1.18750793	    -11.10582040	    -16.49537647	     -2.59032171	     -6.27722850	      4.16079929	     -1.78876996	     -0.69813303	     12.25238955
      1.12966667	     -4.25425764	      0.09893899	     -6.53203296	     -0.06145883	      0.87715181	      0.38018784	    -13.22262639	      2.95091352	      0.47371164	    -19.27580510	     14.87326302	     15.78415660	     23.47214165	     31.11142060	     -0.89993481	    -10.79884782	    -17.26270004	     -2.67093380	     -6.87433083	      4.17338675	     -1.79537995	     -1.00110344	     12.06444138
      1.13383333	     -4.24265592	      0.21686651	     -6.43954680	     -0.05534402	      0.87729167	      0.37983009	    -12.98970346	      2.76183642	      0.34014635	    -20.45022022	     14.12212313	     15.79941355	     23.60493235	     31.14952724	     -0.68609533	    -10.56748103	    -18.14213835	     -2.58121099	     -7.20742013	      4.17674914	     -1.74806980	     -1.25437228	     11.96405850
      1.13800000	     -4.22592726	      0.35559474	     -6.33993237	     -0.04926036	      0.87749369	      0.37936987	    -12.67511146	      2.52898104	      0.10977344	    -21.78411352	     13.42731422	     15.90035306	     23.94987481	     31.14372442	     -0.42056311	    -10.25673945	    -18.92503718	     -2.58677780	     -7.72868584	      4.16987126	     -1.71892634	     -1.47502473	     11.74564262
      1.14216667	     -4.12185001	      0.49723473	     -6.23660480	     -0.04310698	      0.87791309	      0.37891036	    -12.45292489	      2.27758204	     -0.12032181	    -23.08130099	     12.46838396	     15.97542259	     28.06263169	     31.01473737	     -0.14213423	     -9.97575486	    -19.67613034	     -2.45042961	     -8.18763557	      4.00557056	     -1.80117716	     -1.74166410	     11.59756972
      1.14633333	     -4.08132022	      0.65183724	     -6.13540357	     -0.03696374	      0.87827749	      0.37847218	    -12.09762525	      2.02454233	     -0.31288332	    -24.50337791	     11.59567942	     15.95729344	     28.09907792	     30.95097479	      0.12162654	     -9.78261833	    -20.42902154	     -2.22310856	     -8.37493410	      4.00624037	     -1.77715034	     -2.04312183	     11.47195397
      1.15050000	     -4.04134323	      0.79507936	     -6.02430532	     -0.03088719	      0.87867036	      0.37793073	    -11.66654033	      1.75898347	     -0.58895463	    -26.04967466	     10.72011242	     16.08103919	     28.23079899	     30.86759987	      0.39842752	     -9.52742448	    -21.12921341	     -2.03361513	     -8.70636869	      3.99228263	     -1.77185816	     -2.25895990	     11.25450718
      1.15466667	     -3.94502674	      0.96697834	     -5.92665799	     -0.02479107	      0.87920513	      0.37739519	    -11.26122218	      1.44430651	     -0.85397628	    -27.63425378	      9.78040810	     16.20143003	     28.67693392	     30.68070202	      0.71100553	     -9.29152685	    -21.75199743	     -1.77479922	     -9.08420769	      3.93047142	     -1.84035049	     -2.55209326	     11.01851025
      1.15883333	     -3.89209047	      1.10552489	     -5.80056450	     -0.01873407	      0.87969817	      0.37682257	    -10.77059609	      1.17053152	     -1.14114013	    -29.26754539	      8.72871526	     16.26909360	     28.89394415	     30.55243586	      0.97916623	     -9.09916856	    -22.40345192	     -1.47353816	     -9.20995297	      3.90226251	     -1.85045903	     -2.78840038	     10.88448425
      1.16300000	     -3.80640357	      1.26875689	     -5.69088205	     -0.01270168	      0.88027305	      0.37623843	    -10.26315454	      0.84770673	     -1.43379250	    -30.97205424	      7.65737012	     16.35177098	     29.17306322	     30.34540426	      1.27827875	     -8.91434246	    -22.96457718	     -1.14450112	     -9.39797013	      3.85996486	     -1.90870299	     -3.05578155	     10.69367704
      1.16716667	     -3.69865261	      1.43889979	     -5.59851059	     -0.00670631	      0.88091512	      0.37564265	     -9.73364272	      0.49962008	     -1.71377897	    -32.72940131	      6.55149412	     16.41962201	     29.86148302	     30.07444461	      1.58950251	     -8.72647615	    -23.44701963	     -0.74332254	     -9.63132438	      3.73575266	     -1.99445060	     -3.31553058	     10.46007513
      1.17133333	     -3.56179056	      1.58249386	     -5.47282701	     -0.00072908	      0.88161956	      0.37505337	     -9.22742784	      0.18486545	     -2.02025349	    -34.47115501	      5.30448105	     16.34082963	     29.89990589	     29.77496258	      1.86137246	     -8.62531625	    -23.94163383	     -0.34056112	     -9.62497963	      3.73438163	     -2.12886085	     -3.57135685	     10.39968621
      1.17550000	     -3.44582227	      1.73948069	     -5.36682255	      0.00517973	      0.88230158	      0.37445073	     -8.64236950	     -0.16189750	     -2.32091775	    -36.28248045	      4.06003680	     16.29519905	     29.93156438	     29.46777685	      2.14415092	     -8.52899580	    -24.36978432	      0.09213560	     -9.64190478	      3.73346879	     -2.24075871	     -3.81962038	     10.28593926
      1.17966667	     -3.37173554	      1.92733235	     -5.27509264	      0.01103271	      0.88294411	      0.37383520	     -7.96270307	     -0.55363595	     -2.60780712	    -38.14639087	      2.78660592	     16.26714297	     29.98187825	     29.15963991	      2.46098714	     -8.40793072	    -24.68727036	      0.48355234	     -9.63517062	      3.72427676	     -2.29131763	     -4.09348251	     10.09827933
